<svg id="Layer_1" data-name="Layer 1" xmlns="http://www.w3.org/2000/svg" xmlns:xlink="http://www.w3.org/1999/xlink" viewBox="0 0 307.5 307.5"><script xmlns="" id="current-song-media-session-proxy"/><defs><style>.cls-1{fill:url(#linear-gradient);}.cls-2{fill:none;stroke:#000;stroke-linecap:round;stroke-linejoin:round;stroke-width:5px;}</style><linearGradient id="linear-gradient" x1="11.24" y1="296.72" x2="296.27" y2="11.74" gradientTransform="matrix(1, 0, 0, -1, 0, 308)" gradientUnits="userSpaceOnUse"><stop offset="0" stop-color="#fff" stop-opacity="0.8"/><stop offset="0.82" stop-color="#900" stop-opacity="0.8"/></linearGradient></defs><title>avatar_red</title><g id="red_frame_mc" data-name="red frame mc"><g id="Symbol_853_0_Layer0_0_FILL" data-name="Symbol 853 0 Layer0 0 FILL"><path class="cls-1" d="M301,22.2q-1.61-14-15.8-15.7-10.09-2-32.5-3.6Q211.75.05,153.8,0q-11.6,0-22.55.15L54.8,2.9Q32.3,4.51,22.2,6.5,8.1,8.2,6.45,22.35q-2,10.2-3.55,32.45-2.2,31-2.75,71.65Q0,139.6,0,153.8q0,57.9,2.85,98.95Q4.5,275,6.55,285.15q1.55,14.25,15.7,15.9Q32.49,303,54.7,304.6q41,2.89,99,2.9t99-2.95q22.35-1.55,32.5-3.5Q299.4,299.4,301,285.3q2-10.16,3.6-32.6,2.89-41,2.9-99t-2.9-98.9Q303,32.41,301,22.2Z"/></g></g><g id="Layer0_0_FILL" data-name="Layer0 0 FILL"><path d="M281.75,45.75q0-20-20-20h-216q-20,0-20,20v216q0,20,20,20h216q20,0,20-20Z"/></g><path id="Layer0_0_1_STROKES" data-name="Layer0 0 1 STROKES" class="cls-2" d="M261.75,25.75h-216q-20,0-20,20v216q0,20,20,20h216q20,0,20-20v-216Q281.75,25.76,261.75,25.75Z"/></svg>