<svg id="Layer_1" data-name="Layer 1" xmlns="http://www.w3.org/2000/svg" xmlns:xlink="http://www.w3.org/1999/xlink" viewBox="0 0 307.95 171.25"><script xmlns="" id="current-song-media-session-proxy"/><defs><style>.cls-1,.cls-4{fill:none;}.cls-2{fill:#fff;}.cls-3{fill:#0c0;}.cls-4{stroke:#060;stroke-linecap:round;stroke-linejoin:round;stroke-width:5px;}.cls-5{clip-path:url(#clip-path);}.cls-6{isolation:isolate;}</style><clipPath id="clip-path" transform="translate(2.5 2.5)"><rect class="cls-1" x="19" y="46.4" width="190.3" height="73.45"/></clipPath></defs><title>duel_btn_down</title><g id="Layer1_0_FILL" data-name="Layer1 0 FILL"><path class="cls-2" d="M159,0V33.1H0v100H159v33.15l144-83.1L159,0m11,45.15V20l105.1,63.15L170,146.25v-25.2H12.85V45.15Z" transform="translate(2.5 2.5)"/><path class="cls-3" d="M170,20V45.15H12.85v75.9H170v25.2l105.1-63.1Z" transform="translate(2.5 2.5)"/></g><path id="Layer1_0_1_STROKES" data-name="Layer1 0 1 STROKES" class="cls-4" d="M170,20l105.1,63.15L170,146.25v-25.2H12.85V45.15H170ZM159,0,303,83.15l-144,83.1V133.1H0V33.1H159Z" transform="translate(2.5 2.5)"/><g class="cls-5"><g class="cls-6"><g class="cls-6"><path class="cls-2" d="M31.08,62.25H42.42a30.35,30.35,0,0,1,7.58.82,14,14,0,0,1,5.75,3.08q6.7,5.75,6.71,17.46a34.18,34.18,0,0,1-.68,7.06,20.81,20.81,0,0,1-2.08,5.76A18.21,18.21,0,0,1,56.1,101a14.56,14.56,0,0,1-3.78,2.49,16.84,16.84,0,0,1-4.41,1.32,34.08,34.08,0,0,1-5.32.38H31.25a7.06,7.06,0,0,1-3.57-.72,3.37,3.37,0,0,1-1.57-2,13.07,13.07,0,0,1-.36-3.38V67.58A5.59,5.59,0,0,1,27,63.51,5.57,5.57,0,0,1,31.08,62.25Zm3.37,6.89V98.29H41c1.44,0,2.58,0,3.4-.12A10.4,10.4,0,0,0,47,97.58a6.76,6.76,0,0,0,2.28-1.32q4.36-3.69,4.37-12.71,0-6.36-1.92-9.52A8.58,8.58,0,0,0,47,70a23.25,23.25,0,0,0-6.8-.86Z" transform="translate(2.5 2.5)"/><path class="cls-2" d="M70.16,87.45V66.79a5.74,5.74,0,0,1,1.19-4,4,4,0,0,1,3.12-1.32,4.09,4.09,0,0,1,3.2,1.32,5.69,5.69,0,0,1,1.19,4V87.92a19.22,19.22,0,0,0,.81,6,7,7,0,0,0,2.85,3.75A10.59,10.59,0,0,0,88.27,99c3.39,0,5.8-.9,7.2-2.71s2.11-4.55,2.11-8.22V66.79a5.81,5.81,0,0,1,1.17-4,4,4,0,0,1,3.14-1.3,4.14,4.14,0,0,1,3.18,1.3,5.66,5.66,0,0,1,1.21,4V87.45a30.25,30.25,0,0,1-1,8.4,13,13,0,0,1-3.7,5.92,14.49,14.49,0,0,1-5.45,3.17,24,24,0,0,1-7.27,1,29.65,29.65,0,0,1-8.52-1.07,12.73,12.73,0,0,1-9.15-9A29.29,29.29,0,0,1,70.16,87.45Z" transform="translate(2.5 2.5)"/><path class="cls-2" d="M144,69h-19.6V79.51h18a4.29,4.29,0,0,1,3,.89,3.06,3.06,0,0,1,1,2.36,3.14,3.14,0,0,1-1,2.39,4.2,4.2,0,0,1-3,.92h-18V98.29h20.27a4.4,4.4,0,0,1,3.09.95,3.24,3.24,0,0,1,1,2.53,3.19,3.19,0,0,1-1,2.48,4.45,4.45,0,0,1-3.09,1H121a4.55,4.55,0,0,1-5.33-5.33V67.58a7.25,7.25,0,0,1,.55-3.06A3.51,3.51,0,0,1,118,62.79a7.34,7.34,0,0,1,3-.54h23a4.47,4.47,0,0,1,3.09.92,3.14,3.14,0,0,1,1,2.42,3.17,3.17,0,0,1-1,2.45A4.47,4.47,0,0,1,144,69Z" transform="translate(2.5 2.5)"/><path class="cls-2" d="M164.23,66.79V98.05h17.64a4.63,4.63,0,0,1,3.24,1,3.33,3.33,0,0,1,1.12,2.58,3.27,3.27,0,0,1-1.11,2.56,4.8,4.8,0,0,1-3.25,1h-21a5.57,5.57,0,0,1-4.08-1.26,5.63,5.63,0,0,1-1.25-4.07V66.79a5.74,5.74,0,0,1,1.19-4,4,4,0,0,1,3.12-1.32,4.14,4.14,0,0,1,3.18,1.3A5.66,5.66,0,0,1,164.23,66.79Z" transform="translate(2.5 2.5)"/><path class="cls-2" d="M194,86.6l-.94-14c-.18-2.73-.26-4.69-.26-5.89a5.33,5.33,0,0,1,1.27-3.79,4.38,4.38,0,0,1,3.36-1.36,3.37,3.37,0,0,1,3.36,1.74,11.75,11.75,0,0,1,.85,5,37.3,37.3,0,0,1-.2,3.92l-1.26,14.45a11.4,11.4,0,0,1-.88,4A2.3,2.3,0,0,1,197.1,92a2.21,2.21,0,0,1-2.19-1.34A13,13,0,0,1,194,86.6Zm3.25,19.27a4.62,4.62,0,0,1-3.12-1.15,4.05,4.05,0,0,1-1.33-3.24,4.2,4.2,0,0,1,1.27-3.09,4.25,4.25,0,0,1,3.12-1.28,4.35,4.35,0,0,1,3.15,1.28,4.16,4.16,0,0,1,1.3,3.09,4.1,4.1,0,0,1-1.31,3.22A4.5,4.5,0,0,1,197.28,105.87Z" transform="translate(2.5 2.5)"/></g></g></g></svg>