<svg id="Layer_1" data-name="Layer 1" xmlns="http://www.w3.org/2000/svg" xmlns:xlink="http://www.w3.org/1999/xlink" viewBox="0 0 1024 640"><script xmlns="" id="current-song-media-session-proxy"/><defs><style>.cls-1{fill-opacity:0.2;}.cls-2,.cls-3{fill:none;stroke-linecap:round;stroke-linejoin:round;stroke-width:2.5px;}.cls-2{stroke:url(#linear-gradient);}.cls-3{stroke:url(#linear-gradient-2);}</style><linearGradient id="linear-gradient" x1="-1.25" y1="594.5" x2="626.05" y2="594.5" gradientTransform="matrix(1, 0, 0, -1, 207, 647)" gradientUnits="userSpaceOnUse"><stop offset="0" stop-color="#00b400"/><stop offset="1" stop-color="#ff8f00"/></linearGradient><linearGradient id="linear-gradient-2" x1="-1.25" y1="115.5" x2="626.05" y2="115.5" gradientTransform="matrix(1, 0, 0, -1, 207, 647)" gradientUnits="userSpaceOnUse"><stop offset="0" stop-color="red"/><stop offset="1" stop-color="#90f"/></linearGradient></defs><title>field_decks</title><g id="field_decks_mc" data-name="field decks mc"><g id="field_decks_mc_0_Layer0_0_FILL" data-name="field decks mc 0 Layer0 0 FILL"><path class="cls-1" d="M833,492q0-6-6-6H775q-6,0-6,6v79q0,6,6,6h52q6,0,6-6V492m-620-6q-6,0-6,6v79q0,6,6,6h52q6,0,6-6V492q0-6-6-6H213M271,13q0-6-6-6H213q-6,0-6,6V92q0,6,6,6h52q6,0,6-6V13m562,0q0-6-6-6H775q-6,0-6,6V92q0,6,6,6h52q6,0,6-6Z"/></g><path id="field_decks_mc_0_Layer0_0_1_STROKES" data-name="field decks mc 0 Layer0 0 1 STROKES" class="cls-2" d="M827,7H775q-6,0-6,6V92q0,6,6,6h52q6,0,6-6V13Q833,7,827,7ZM265,7H213q-6,0-6,6V92q0,6,6,6h52q6,0,6-6V13Q271,7,265,7Z"/><path id="field_decks_mc_0_Layer0_0_2_STROKES" data-name="field decks mc 0 Layer0 0 2 STROKES" class="cls-3" d="M265,486H213q-6,0-6,6v79q0,6,6,6h52q6,0,6-6V492Q271,486,265,486Zm562,0H775q-6,0-6,6v79q0,6,6,6h52q6,0,6-6V492Q833,486,827,486Z"/></g></svg>