<svg id="Layer_1" data-name="Layer 1" xmlns="http://www.w3.org/2000/svg" xmlns:xlink="http://www.w3.org/1999/xlink" viewBox="0 0 1024 640"><script xmlns="" id="current-song-media-session-proxy"/><defs><style>.cls-1{fill-opacity:0.3;}.cls-2{fill:#06f;fill-opacity:0;}.cls-10,.cls-11,.cls-12,.cls-3,.cls-4,.cls-5,.cls-6,.cls-7,.cls-8,.cls-9{fill:none;stroke-linecap:round;stroke-linejoin:round;stroke-width:2.5px;}.cls-3{stroke:url(#linear-gradient);}.cls-4{stroke:url(#linear-gradient-2);}.cls-5{stroke:url(#linear-gradient-3);}.cls-6{stroke:url(#linear-gradient-4);}.cls-7{stroke:url(#linear-gradient-5);}.cls-8{stroke:url(#linear-gradient-6);}.cls-9{stroke:url(#linear-gradient-7);}.cls-10{stroke:url(#linear-gradient-8);}.cls-11{stroke:url(#linear-gradient-9);}.cls-12{stroke:url(#linear-gradient-10);}</style><linearGradient id="linear-gradient" x1="-0.65" y1="501.5" x2="626.65" y2="501.5" gradientTransform="matrix(1, 0, 0, -1, 207, 700)" gradientUnits="userSpaceOnUse"><stop offset="0" stop-color="#00b400"/><stop offset="1" stop-color="#ff8f00"/></linearGradient><linearGradient id="linear-gradient-2" x1="-0.65" y1="315.5" x2="626.65" y2="315.5" gradientTransform="matrix(1, 0, 0, -1, 207, 700)" gradientUnits="userSpaceOnUse"><stop offset="0" stop-color="red"/><stop offset="1" stop-color="#90f"/></linearGradient><linearGradient id="linear-gradient-3" x1="-1.25" x2="626.05" xlink:href="#linear-gradient-2"/><linearGradient id="linear-gradient-4" x1="-1.25" x2="626.05" xlink:href="#linear-gradient"/><linearGradient id="linear-gradient-5" x1="-36.65" y1="548" x2="590.65" y2="548" xlink:href="#linear-gradient"/><linearGradient id="linear-gradient-6" x1="-1.25" y1="408.5" x2="627.25" y2="408.5" xlink:href="#linear-gradient-2"/><linearGradient id="linear-gradient-7" x1="-36.65" y1="269" x2="590.65" y2="269" xlink:href="#linear-gradient-2"/><linearGradient id="linear-gradient-8" x1="35.35" y1="548" x2="662.65" y2="548" xlink:href="#linear-gradient"/><linearGradient id="linear-gradient-9" x1="-1.25" y1="408.5" x2="627.25" y2="408.5" gradientTransform="matrix(1, 0, 0, -1, 207, 700)" gradientUnits="userSpaceOnUse"><stop offset="0" stop-color="#00b400"/><stop offset="1" stop-color="#ff8b00"/></linearGradient><linearGradient id="linear-gradient-10" x1="35.35" y1="269" x2="662.65" y2="269" xlink:href="#linear-gradient-2"/></defs><title>field_zones3</title><g id="field_zones_mc" data-name="field zones mc"><g id="field_zones_dl_mc_0_Layer10_0_FILL" data-name="field zones dl mc 0 Layer10 0 FILL"><path class="cls-1" d="M330,432q-6,0-6,6v79q0,6,6,6h79q6,0,6-6V438q0-6-6-6H330M213,339q-6,0-6,6v79q0,6,6,6h52q6,0,6-6V345q0-6-6-6H213m117,0q-6,0-6,6v79q0,6,6,6h79q6,0,6-6V345q0-6-6-6H330m-50-93q-6,0-6,6v79q0,6,6,6h52q6,0,6-6V252q0-6-6-6H280m-67,0q-6,0-6,6v79q0,6,6,6h52q6,0,6-6V252q0-6-6-6H213m52-93H213q-6,0-6,6v79q0,6,6,6h52q6,0,6-6V159q0-6-6-6m150,85V159q0-6-6-6H330q-6,0-6,6v79q0,6,6,6h79q6,0,6-6m0-172q0-6-6-6H330q-6,0-6,6v79q0,6,6,6h79q6,0,6-6V66M833,345q0-6-6-6H775q-6,0-6,6v79q0,6,6,6h52q6,0,6-6V345M630,432q-6,0-6,6v79q0,6,6,6h79q6,0,6-6V438q0-6-6-6H630m-65,6q0-6-6-6H480q-6,0-6,6v79q0,6,6,6h79q6,0,6-6V438m0-93q0-6-6-6H480q-6,0-6,6v79q0,6,6,6h79q6,0,6-6V345m65-6q-6,0-6,6v79q0,6,6,6h79q6,0,6-6V345q0-6-6-6H630m-71-95q6,0,6-6V159q0-6-6-6H480q-6,0-6,6v79q0,6,6,6h79m6-178q0-6-6-6H480q-6,0-6,6v79q0,6,6,6h79q6,0,6-6V66M833,252q0-6-6-6H775q-6,0-6,6v79q0,6,6,6h52q6,0,6-6V252m-125-6q-6,0-6,6v79q0,6,6,6h52q6,0,6-6V252q0-6-6-6H708m1-2q6,0,6-6V159q0-6-6-6H630q-6,0-6,6v79q0,6,6,6h79m6-178q0-6-6-6H630q-6,0-6,6v79q0,6,6,6h79q6,0,6-6V66m112,87H775q-6,0-6,6v79q0,6,6,6h52q6,0,6-6V159Q833,153,827,153Z"/></g><g id="field_spell_pic_mc" data-name="field spell pic mc"><g id="field_spell_pic_mc_0_Layer0_0_FILL" data-name="field spell pic mc 0 Layer0 0 FILL"><path class="cls-2" d="M751,523V60H288V523Z"/></g></g><path id="field_zones_dl_mc_0_Layer8_0_1_STROKES" data-name="field zones dl mc 0 Layer8 0 1 STROKES" class="cls-3" d="M559,60H480q-6,0-6,6v79q0,6,6,6h79q6,0,6-6V66Q565,60,559,60Zm0,93H480q-6,0-6,6v79q0,6,6,6h79q6,0,6-6V159Q565,153,559,153ZM332,246H280q-6,0-6,6v79q0,6,6,6h52q6,0,6-6V252Q338,246,332,246Z"/><path id="field_zones_dl_mc_0_Layer8_0_2_STROKES" data-name="field zones dl mc 0 Layer8 0 2 STROKES" class="cls-4" d="M760,246H708q-6,0-6,6v79q0,6,6,6h52q6,0,6-6V252Q766,246,760,246ZM474,345v79q0,6,6,6h79q6,0,6-6V345q0-6-6-6H480Q474,339,474,345Zm85,87H480q-6,0-6,6v79q0,6,6,6h79q6,0,6-6V438Q565,432,559,432Z"/><path id="field_zones_dl_mc_0_Layer8_0_3_STROKES" data-name="field zones dl mc 0 Layer8 0 3 STROKES" class="cls-5" d="M775,430h52q6,0,6-6V345q0-6-6-6H775q-6,0-6,6v79Q769,430,775,430Zm-562,0h52q6,0,6-6V345q0-6-6-6H213q-6,0-6,6v79Q207,430,213,430Z"/><path id="field_zones_dl_mc_0_Layer8_0_4_STROKES" data-name="field zones dl mc 0 Layer8 0 4 STROKES" class="cls-6" d="M769,238q0,6,6,6h52q6,0,6-6V159q0-6-6-6H775q-6,0-6,6ZM265,153H213q-6,0-6,6v79q0,6,6,6h52q6,0,6-6V159Q271,153,265,153Z"/><path id="field_zones_dl_mc_0_Layer8_0_5_STROKES" data-name="field zones dl mc 0 Layer8 0 5 STROKES" class="cls-7" d="M709,60H630q-6,0-6,6v79q0,6,6,6h79q6,0,6-6V66Q715,60,709,60Zm-85,99v79q0,6,6,6h79q6,0,6-6V159q0-6-6-6H630Q624,153,624,159Z"/><path id="field_zones_dl_mc_0_Layer8_0_6_STROKES" data-name="field zones dl mc 0 Layer8 0 6 STROKES" class="cls-8" d="M827,246H775q-6,0-6,6v79q0,6,6,6h52q6,0,6-6V252Q833,246,827,246Z"/><path id="field_zones_dl_mc_0_Layer8_0_7_STROKES" data-name="field zones dl mc 0 Layer8 0 7 STROKES" class="cls-9" d="M624,345v79q0,6,6,6h79q6,0,6-6V345q0-6-6-6H630Q624,339,624,345Zm85,87H630q-6,0-6,6v79q0,6,6,6h79q6,0,6-6V438Q715,432,709,432Z"/><path id="field_zones_dl_mc_0_Layer8_0_8_STROKES" data-name="field zones dl mc 0 Layer8 0 8 STROKES" class="cls-10" d="M409,60H330q-6,0-6,6v79q0,6,6,6h79q6,0,6-6V66Q415,60,409,60Zm0,93H330q-6,0-6,6v79q0,6,6,6h79q6,0,6-6V159Q415,153,409,153Z"/><path id="field_zones_dl_mc_0_Layer8_0_9_STROKES" data-name="field zones dl mc 0 Layer8 0 9 STROKES" class="cls-11" d="M265,246H213q-6,0-6,6v79q0,6,6,6h52q6,0,6-6V252Q271,246,265,246Z"/><path id="field_zones_dl_mc_0_Layer8_0_10_STROKES" data-name="field zones dl mc 0 Layer8 0 10 STROKES" class="cls-12" d="M409,339H330q-6,0-6,6v79q0,6,6,6h79q6,0,6-6V345Q415,339,409,339Zm-85,99v79q0,6,6,6h79q6,0,6-6V438q0-6-6-6H330Q324,432,324,438Z"/></g></svg>