<?xml version="1.0" encoding="UTF-8" standalone="no"?>
<svg
   xmlns:dc="http://purl.org/dc/elements/1.1/"
   xmlns:cc="http://creativecommons.org/ns#"
   xmlns:rdf="http://www.w3.org/1999/02/22-rdf-syntax-ns#"
   xmlns:svg="http://www.w3.org/2000/svg"
   xmlns="http://www.w3.org/2000/svg"
   xmlns:sodipodi="http://sodipodi.sourceforge.net/DTD/sodipodi-0.dtd"
   xmlns:inkscape="http://www.inkscape.org/namespaces/inkscape"
   inkscape:version="1.0 (4035a4fb49, 2020-05-01)"
   sodipodi:docname="monster.svg"
   version="1.1"
   viewBox="0 0 1024 640"
   id="Layer_1">
  <metadata
     id="metadata196">
    <rdf:RDF>
      <cc:Work
         rdf:about="">
        <dc:format>image/svg+xml</dc:format>
        <dc:type
           rdf:resource="http://purl.org/dc/dcmitype/StillImage" />
      </cc:Work>
    </rdf:RDF>
  </metadata>
  <sodipodi:namedview
     inkscape:current-layer="Layer_1"
     inkscape:window-maximized="1"
     inkscape:window-y="-11"
     inkscape:window-x="-11"
     inkscape:cy="126.16849"
     inkscape:cx="254.39676"
     inkscape:zoom="11.435603"
     inkscape:snap-center="true"
     inkscape:snap-object-midpoints="true"
     inkscape:snap-midpoints="true"
     inkscape:snap-smooth-nodes="true"
     inkscape:snap-intersection-paths="true"
     inkscape:object-paths="true"
     showgrid="false"
     id="namedview194"
     inkscape:window-height="2066"
     inkscape:window-width="3840"
     inkscape:pageshadow="2"
     inkscape:pageopacity="0"
     guidetolerance="10"
     gridtolerance="10"
     objecttolerance="10"
     borderopacity="1"
     bordercolor="#666666"
     pagecolor="#ffffff" />
  <defs
     id="defs34">
    <style
       id="style2">.cls-1{stroke:#ff7500;}.cls-1,.cls-2,.cls-3{fill:none;stroke-linecap:round;stroke-linejoin:round;}.cls-2{stroke:#09f;}.cls-4{fill:rgba(255,121,0,.85);}.cls-4,.cls-5,.cls-6,.cls-7,.cls-8,.cls-9,.cls-10,.cls-11,.cls-12,.cls-13,.cls-14{stroke-width:0px;}.cls-5{fill:url(#radial-gradient);}.cls-6{fill:rgba(0,204,255,.75);}.cls-7{fill:url(#radial-gradient-2);}.cls-8{fill:url(#radial-gradient-3);}.cls-9{fill:url(#radial-gradient-4);}.cls-10{fill:url(#radial-gradient-6);}.cls-11{fill:url(#radial-gradient-5);}.cls-12{fill:rgba(153,0,204,.6);}.cls-13{fill:rgba(255,255,255,.5);}.cls-14{fill:#fff;}.cls-3{stroke:rgba(153,0,204,.6);}</style>
    <radialGradient
       gradientUnits="userSpaceOnUse"
       gradientTransform="translate(225 -115.5)"
       r="34.71"
       fy="150"
       fx="0"
       cy="150"
       cx="0"
       id="radial-gradient">
      <stop
         id="stop4"
         stop-color="#fff"
         offset="0" />
      <stop
         id="stop6"
         stop-color="#000"
         offset="1" />
    </radialGradient>
    <radialGradient
       gradientUnits="userSpaceOnUse"
       gradientTransform="translate(225 -78.5)"
       r="34.71"
       fy="150"
       fx="0"
       cy="150"
       cx="0"
       id="radial-gradient-2">
      <stop
         id="stop9"
         stop-color="#ff6"
         offset="0" />
      <stop
         id="stop11"
         stop-color="#000"
         offset="1" />
    </radialGradient>
    <radialGradient
       gradientUnits="userSpaceOnUse"
       gradientTransform="translate(225 -41.5)"
       r="34.71"
       fy="150"
       fx="0"
       cy="150"
       cx="0"
       id="radial-gradient-3">
      <stop
         id="stop14"
         stop-color="#c90"
         offset="0" />
      <stop
         id="stop16"
         stop-color="#000"
         offset="1" />
    </radialGradient>
    <radialGradient
       gradientUnits="userSpaceOnUse"
       gradientTransform="translate(225 -4.5)"
       r="34.71"
       fy="150"
       fx="0"
       cy="150"
       cx="0"
       id="radial-gradient-4">
      <stop
         id="stop19"
         stop-color="#0cf"
         offset="0" />
      <stop
         id="stop21"
         stop-color="#000"
         offset="1" />
    </radialGradient>
    <radialGradient
       gradientUnits="userSpaceOnUse"
       gradientTransform="translate(225 69.5)"
       r="34.71"
       fy="113"
       fx="0"
       cy="113"
       cx="0"
       id="radial-gradient-5">
      <stop
         id="stop24"
         stop-color="#6f6"
         offset="0" />
      <stop
         id="stop26"
         stop-color="#000"
         offset="1" />
    </radialGradient>
    <radialGradient
       gradientUnits="userSpaceOnUse"
       gradientTransform="translate(225 106.5)"
       r="34.71"
       fy="113"
       fx="0"
       cy="113"
       cx="0"
       id="radial-gradient-6">
      <stop
         id="stop29"
         stop-color="#ff7be8"
         offset="0" />
      <stop
         id="stop31"
         stop-color="#000"
         offset="1" />
    </radialGradient>
  </defs>
  <path
     d="M738,81.5h-54V5h54v76.5ZM793,82.5v76.5h-54v-76.5h54ZM793,5v76.5h-54V5h54ZM793,160v76.5h-54v-76.5h54ZM738,82.5v76.5h-54v-76.5h54ZM683,81.5h-54V5h54v76.5ZM573,81.5h-54V5h54v76.5ZM628,82.5v76.5h-54v-76.5h54ZM628,5v76.5h-54V5h54ZM628,160v76.5h-54v-76.5h54ZM573,82.5v76.5h-54v-76.5h54ZM683,236.5h-54v-76.5h54v76.5ZM683,159h-54v-76.5h54v76.5ZM628,237.5v76.5h-54v-76.5h54ZM628,392.5v76.5h-54v-76.5h54ZM628,315v76.5h-54v-76.5h54ZM519,315h54v76.5h-54v-76.5ZM683,391.5h-54v-76.5h54v76.5ZM684,315h54v76.5h-54v-76.5ZM738,237.5v76.5h-54v-76.5h54ZM573,237.5v76.5h-54v-76.5h54ZM683,469h-54v-76.5h54v76.5ZM683,314h-54v-76.5h54v76.5ZM793,237.5v76.5h-54v-76.5h54ZM793,392.5v76.5h-54v-76.5h54ZM793,315v76.5h-54v-76.5h54ZM738,392.5v76.5h-54v-76.5h54ZM738,160v76.5h-54v-76.5h54ZM573,160v76.5h-54v-76.5h54ZM518,81.5h-54V5h54v76.5ZM408,81.5h-54V5h54v76.5ZM463,82.5v76.5h-54v-76.5h54ZM463,5v76.5h-54V5h54ZM463,160v76.5h-54v-76.5h54ZM408,82.5v76.5h-54v-76.5h54ZM518,160v76.5h-54v-76.5h54ZM518,159h-54v-76.5h54v76.5ZM353,81.5h-54V5h54v76.5ZM298,82.5v76.5h-54v-76.5h54ZM298,81.5h-54V5h54v76.5ZM298,160v76.5h-54v-76.5h54ZM353,236.5h-54v-76.5h54v76.5ZM353,159h-54v-76.5h54v76.5ZM298,237.5v76.5h-54v-76.5h54ZM298,315v76.5h-54v-76.5h54ZM298,392.5v76.5h-54v-76.5h54ZM353,391.5h-54v-76.5h54v76.5ZM354,315h54v76.5h-54v-76.5ZM408,237.5v76.5h-54v-76.5h54ZM353,392.5v76.5h-54v-76.5h54ZM353,314h-54v-76.5h54v76.5ZM463,237.5v76.5h-54v-76.5h54ZM463,315v76.5h-54v-76.5h54ZM464,315h54v76.5h-54v-76.5ZM463,392.5v76.5h-54v-76.5h54ZM518,392.5v76.5h-54v-76.5h54ZM464,237.5h54v76.5h-54v-76.5ZM408,392.5v76.5h-54v-76.5h54ZM408,160v76.5h-54v-76.5h54ZM573,392.5v76.5h-54v-76.5h54Z"
     class="cls-3"
     id="deck_slots_mc_0_Layer0_0_1_STROKES" />
  <g
     aria-label="通"
     id="text1189-1"
     style="font-weight:bold;font-size:48px;line-height:1.25;font-family:'Chogokuboso Gothic';-inkscape-font-specification:'Chogokuboso Gothic Bold';display:inline;stroke:#ffc41b;stroke-width:0.633547;stroke-miterlimit:4;stroke-dasharray:none;stroke-opacity:1"
     transform="matrix(0.78920693,0,0,0.78920693,90.256381,46.377549)">
    <path
       style="stroke:#ffc41b;stroke-width:0.633547;stroke-miterlimit:4;stroke-dasharray:none;stroke-opacity:1"
       d="m 158.05325,43.926277 q -2.8125,4.171875 -7.73437,7.734375 l -0.32813,-0.421875 q 5.34375,-3.84375 7.875,-7.921875 v -14.0625 h -7.6875 v -0.46875 h 8.20313 v 14.53125 q 2.10937,4.03125 5.8125,5.53125 3.70312,1.546875 11.20312,1.546875 h 16.07813 v 0.46875 H 175.397 q -7.35937,0 -11.20312,-1.453125 -3.79688,-1.453125 -6.14063,-5.484375 z m 18.79688,-16.59375 h -12.23438 v 7.6875 h 12.23438 z m 0.46875,0 v 7.6875 h 12.23437 v -7.6875 z m -0.46875,-0.46875 v -7.171875 h -12.23438 v 7.171875 z m 0.46875,0 h 12.23437 V 19.691902 H 177.31888 Z M 151.397,12.566902 l 0.32813,-0.328125 q 4.03125,3.984375 7.40625,7.828125 l -0.42188,0.328125 q -3.89062,-4.453125 -7.3125,-7.828125 z m 17.15625,2.390625 0.23438,-0.421875 q 3.75,1.828125 8.25,4.453125 6.375,-2.71875 12.28125,-6.515625 h -26.15625 v -0.46875 h 26.90625 v 0.5625 q -3.5625,2.671875 -11.90625,6.609375 h 11.90625 v 22.3125 q 0,2.53125 -0.5625,3.1875 -0.51563,0.65625 -2.57813,0.65625 -1.40625,0 -5.34375,-0.234375 l 0.0469,-0.46875 q 3.9375,0.234375 5.29687,0.234375 1.82813,0 2.20313,-0.46875 0.42187,-0.46875 0.42187,-2.90625 V 35.535652 H 177.3189 v 9.5625 h -0.46875 v -9.5625 h -12.23438 v 10.078125 h -0.51562 v -26.4375 h 12.1875 q -3.5625,-2.0625 -7.73438,-4.21875 z"
       id="path1194-7" />
  </g>
</svg>
