<?xml version="1.0" encoding="UTF-8" standalone="no"?>
<svg
   xmlns:dc="http://purl.org/dc/elements/1.1/"
   xmlns:cc="http://creativecommons.org/ns#"
   xmlns:rdf="http://www.w3.org/1999/02/22-rdf-syntax-ns#"
   xmlns:svg="http://www.w3.org/2000/svg"
   xmlns="http://www.w3.org/2000/svg"
   xmlns:sodipodi="http://sodipodi.sourceforge.net/DTD/sodipodi-0.dtd"
   xmlns:inkscape="http://www.inkscape.org/namespaces/inkscape"
   inkscape:version="1.0 (4035a4fb49, 2020-05-01)"
   sodipodi:docname="monster.svg"
   version="1.1"
   viewBox="0 0 240 240"
   id="Layer_1">
  <metadata
     id="metadata18">
    <rdf:RDF>
      <cc:Work
         rdf:about="">
        <dc:format>image/svg+xml</dc:format>
        <dc:type
           rdf:resource="http://purl.org/dc/dcmitype/StillImage" />
      </cc:Work>
    </rdf:RDF>
  </metadata>
  <sodipodi:namedview
     inkscape:current-layer="layer2"
     inkscape:window-maximized="1"
     inkscape:window-y="-11"
     inkscape:window-x="-11"
     inkscape:cy="113.8369"
     inkscape:cx="112.52217"
     inkscape:zoom="4.4404796"
     inkscape:snap-object-midpoints="true"
     inkscape:object-nodes="false"
     inkscape:snap-intersection-paths="false"
     inkscape:object-paths="true"
     showgrid="false"
     id="namedview16"
     inkscape:window-height="2066"
     inkscape:window-width="3840"
     inkscape:pageshadow="2"
     inkscape:pageopacity="0"
     guidetolerance="10"
     gridtolerance="10"
     objecttolerance="10"
     borderopacity="1"
     bordercolor="#666666"
     pagecolor="#ffffff"
     inkscape:document-rotation="0"
     inkscape:snap-midpoints="false" />
  <defs
     id="defs4">
    <marker
       inkscape:isstock="true"
       style="overflow:visible"
       id="Arrow1Lstart"
       refX="0.0"
       refY="0.0"
       orient="auto"
       inkscape:stockid="Arrow1Lstart">
      <path
         transform="scale(0.8) translate(12.5,0)"
         style="fill-rule:evenodd;stroke:#75587d;stroke-width:1pt;stroke-opacity:0.921569;fill:#75587d;fill-opacity:0.921569"
         d="M 0.0,0.0 L 5.0,-5.0 L -12.5,0.0 L 5.0,5.0 L 0.0,0.0 z "
         id="path951" />
    </marker>
    <style
       id="style2">.cls-1{fill:#6c6;}</style>
  </defs>
  <g
     style="display:inline;opacity:1"
     inkscape:label="img"
     id="layer2"
     inkscape:groupmode="layer">
    <g
       aria-label="通"
       id="text1189-1"
       style="font-weight:bold;font-size:48px;line-height:1.25;font-family:'Chogokuboso Gothic';-inkscape-font-specification:'Chogokuboso Gothic Bold';display:inline;stroke:#ffc41b;stroke-width:0.633547;stroke-miterlimit:4;stroke-dasharray:none;stroke-opacity:1"
       transform="matrix(5.6800551,0,0,5.6800551,-849.38858,-61.139232)">
      <path
         style="stroke:#ffc41b;stroke-width:0.633547;stroke-miterlimit:4;stroke-dasharray:none;stroke-opacity:1"
         d="m 158.05325,43.926277 q -2.8125,4.171875 -7.73437,7.734375 l -0.32813,-0.421875 q 5.34375,-3.84375 7.875,-7.921875 v -14.0625 h -7.6875 v -0.46875 h 8.20313 v 14.53125 q 2.10937,4.03125 5.8125,5.53125 3.70312,1.546875 11.20312,1.546875 h 16.07813 v 0.46875 H 175.397 q -7.35937,0 -11.20312,-1.453125 -3.79688,-1.453125 -6.14063,-5.484375 z m 18.79688,-16.59375 h -12.23438 v 7.6875 h 12.23438 z m 0.46875,0 v 7.6875 h 12.23437 v -7.6875 z m -0.46875,-0.46875 v -7.171875 h -12.23438 v 7.171875 z m 0.46875,0 h 12.23437 V 19.691902 H 177.31888 Z M 151.397,12.566902 l 0.32813,-0.328125 q 4.03125,3.984375 7.40625,7.828125 l -0.42188,0.328125 q -3.89062,-4.453125 -7.3125,-7.828125 z m 17.15625,2.390625 0.23438,-0.421875 q 3.75,1.828125 8.25,4.453125 6.375,-2.71875 12.28125,-6.515625 h -26.15625 v -0.46875 h 26.90625 v 0.5625 q -3.5625,2.671875 -11.90625,6.609375 h 11.90625 v 22.3125 q 0,2.53125 -0.5625,3.1875 -0.51563,0.65625 -2.57813,0.65625 -1.40625,0 -5.34375,-0.234375 l 0.0469,-0.46875 q 3.9375,0.234375 5.29687,0.234375 1.82813,0 2.20313,-0.46875 0.42187,-0.46875 0.42187,-2.90625 V 35.535652 H 177.3189 v 9.5625 h -0.46875 v -9.5625 h -12.23438 v 10.078125 h -0.51562 v -26.4375 h 12.1875 q -3.5625,-2.0625 -7.73438,-4.21875 z"
         id="path1194-7" />
    </g>
  </g>
</svg>
