<svg id="Layer_1" data-name="Layer 1" xmlns="http://www.w3.org/2000/svg" xmlns:xlink="http://www.w3.org/1999/xlink" viewBox="0 0 56 56"><script xmlns="" id="current-song-media-session-proxy"/><defs><style>.cls-1{fill:url(#radial-gradient);}</style><radialGradient id="radial-gradient" cx="0" cy="11.98" r="22.44" gradientTransform="translate(27.9 15.95)" gradientUnits="userSpaceOnUse"><stop offset="0.58" stop-color="#009"/><stop offset="0.93" stop-color="#003"/><stop offset="1" stop-color="#030100"/><stop offset="1"/><stop offset="1" stop-opacity="0"/></radialGradient></defs><title>phase_dark_blue</title><g id="dark_blue_mc" data-name="dark blue mc"><g id="dark_blue_light_mc_0_Layer1_0_FILL" data-name="dark blue light mc 0 Layer1 0 FILL"><path class="cls-1" d="M43.75,12.05A21.58,21.58,0,0,0,27.9,5.5a21.58,21.58,0,0,0-15.85,6.55A21.67,21.67,0,0,0,5.45,28a21.61,21.61,0,0,0,6.6,15.85A21.58,21.58,0,0,0,27.9,50.35,21.58,21.58,0,0,0,43.75,43.8,21.61,21.61,0,0,0,50.35,28,21.67,21.67,0,0,0,43.75,12.05Z"/></g></g></svg>