<svg id="Layer_1" data-name="Layer 1" xmlns="http://www.w3.org/2000/svg" xmlns:xlink="http://www.w3.org/1999/xlink" viewBox="0 0 56 56"><script xmlns="" id="current-song-media-session-proxy"/><defs><style>.cls-1{fill:url(#radial-gradient);}</style><radialGradient id="radial-gradient" cx="-26.65" cy="-24.6" r="59.76" gradientTransform="translate(37.9 37.16) scale(0.38)" gradientUnits="userSpaceOnUse"><stop offset="0.58" stop-color="maroon"/><stop offset="0.93" stop-color="#320000"/><stop offset="1" stop-color="#030100"/><stop offset="1"/><stop offset="1" stop-opacity="0"/></radialGradient></defs><title>phase_dark_red</title><g id="dark_red_mc" data-name="dark red mc"><g id="red_light_mc_0_Layer1_0_FILL" data-name="red light mc 0 Layer1 0 FILL"><path class="cls-1" d="M27.91,5.5A21.63,21.63,0,0,0,12,12.07,21.6,21.6,0,0,0,5.46,27.93,21.62,21.62,0,0,0,12,43.79a21.63,21.63,0,0,0,15.88,6.57,21.62,21.62,0,0,0,15.86-6.57,21.62,21.62,0,0,0,6.57-15.86,21.6,21.6,0,0,0-6.57-15.86A21.62,21.62,0,0,0,27.91,5.5Z"/></g></g></svg>