<?xml version="1.0" encoding="UTF-8" standalone="no"?>
<svg
   xmlns:dc="http://purl.org/dc/elements/1.1/"
   xmlns:cc="http://creativecommons.org/ns#"
   xmlns:rdf="http://www.w3.org/1999/02/22-rdf-syntax-ns#"
   xmlns:svg="http://www.w3.org/2000/svg"
   xmlns="http://www.w3.org/2000/svg"
   xmlns:sodipodi="http://sodipodi.sourceforge.net/DTD/sodipodi-0.dtd"
   xmlns:inkscape="http://www.inkscape.org/namespaces/inkscape"
   id="Layer_1"
   viewBox="0 0 240 240"
   version="1.1"
   sodipodi:docname="points.svg"
   inkscape:version="1.0 (4035a4fb49, 2020-05-01)">
  <metadata
     id="metadata18">
    <rdf:RDF>
      <cc:Work
         rdf:about="">
        <dc:format>image/svg+xml</dc:format>
        <dc:type
           rdf:resource="http://purl.org/dc/dcmitype/StillImage" />
      </cc:Work>
    </rdf:RDF>
  </metadata>
  <sodipodi:namedview
     inkscape:snap-midpoints="true"
     inkscape:document-rotation="0"
     pagecolor="#ffffff"
     bordercolor="#666666"
     borderopacity="1"
     objecttolerance="10"
     gridtolerance="10"
     guidetolerance="10"
     inkscape:pageopacity="0"
     inkscape:pageshadow="2"
     inkscape:window-width="3840"
     inkscape:window-height="2066"
     id="namedview16"
     showgrid="false"
     inkscape:object-paths="true"
     inkscape:snap-intersection-paths="false"
     inkscape:object-nodes="true"
     inkscape:snap-object-midpoints="true"
     inkscape:zoom="19.570474"
     inkscape:cx="101.92798"
     inkscape:cy="46.471405"
     inkscape:window-x="-11"
     inkscape:window-y="-11"
     inkscape:window-maximized="1"
     inkscape:current-layer="layer2" />
  <defs
     id="defs4">
    <marker
       inkscape:stockid="Arrow1Lstart"
       orient="auto"
       refY="0.0"
       refX="0.0"
       id="Arrow1Lstart"
       style="overflow:visible"
       inkscape:isstock="true">
      <path
         id="path951"
         d="M 0.0,0.0 L 5.0,-5.0 L -12.5,0.0 L 5.0,5.0 L 0.0,0.0 z "
         style="fill-rule:evenodd;stroke:#75587d;stroke-width:1pt;stroke-opacity:0.921569;fill:#75587d;fill-opacity:0.921569"
         transform="scale(0.8) translate(12.5,0)" />
    </marker>
    <style
       id="style2">.cls-1{fill:#6c6;}</style>
  </defs>
  <g
     inkscape:groupmode="layer"
     id="layer2"
     inkscape:label="img"
     style="display:inline;opacity:1">
    <g
       id="banned_circle3_0_Layer2_0_FILL-9">
      <path
         id="path6-7"
         d="M 204.83,35.18 C 182.61,12.25 151.9,-0.47 119.98,0.02 88.08,-0.45 57.41,12.27 35.21,35.18 12.26,57.38 -0.49,88.08 0,120.01 c -0.48,31.91 12.27,62.61 35.22,84.79 22.19,22.93 52.87,35.67 84.77,35.2 31.91,0.49 62.61,-12.24 84.81,-35.18 22.94,-22.2 35.67,-52.89 35.18,-84.81 0.5,-31.92 -12.21,-62.62 -35.14,-84.83 z" />
    </g>
    <g
       id="banned_circle3_0_Layer1_0_FILL-4"
       transform="matrix(1.0577085,0,0,1.0577085,-6.9163723,-6.9336849)"
       style="fill:#ca9a34;fill-opacity:0.890196;stroke-width:0.999956;stroke-miterlimit:4;stroke-dasharray:none">
      <path
         id="path9-0"
         d="m 196.95,43.06 c -20.18,-20.86 -48.09,-32.44 -77.11,-32 -29.01,-0.44 -56.92,11.14 -77.09,32 -20.85,20.18 -32.43,48.08 -32,77.09 -0.44,29.01 11.14,56.91 32,77.09 20.18,20.85 48.08,32.43 77.09,32 29.02,0.44 56.93,-11.14 77.11,-32 20.85,-20.18 32.43,-48.08 32,-77.09 0.44,-29.01 -11.14,-56.91 -32,-77.09 z"
         class="cls-1"
         style="fill:#ca9a34;fill-opacity:0.890196;stroke-width:0.999956;stroke-miterlimit:4;stroke-dasharray:none" />
    </g>
    <g
       id="banned_circle3_0_Layer0_0_FILL-6"
       transform="matrix(1.1739168,0,0,1.1739168,-20.866538,-21.024944)">
      <path
         id="path12-4"
         d="M 187.16,53.84 C 169.59,35.63 145.27,25.51 119.98,25.87 94.68,25.51 70.36,35.63 52.8,53.84 34.63,71.43 24.55,95.74 24.94,121.02 c -0.35,25.23 9.73,49.48 27.86,67.03 17.59,18.17 41.9,28.25 67.18,27.86 25.28,0.39 49.6,-9.69 67.18,-27.86 18.17,-17.59 28.25,-41.9 27.86,-67.18 0.35,-25.23 -9.73,-49.48 -27.86,-67.03 z" />
    </g>
    <circle
       style="fill:none;fill-opacity:0.890196;stroke:#ab80b5;stroke-width:17.069;stroke-linecap:butt;stroke-linejoin:round;stroke-miterlimit:4;stroke-dasharray:51.207, 51.207;stroke-dashoffset:107.535;stroke-opacity:1;stop-color:#000000"
       id="path949"
       cx="119.84999"
       cy="120.14999"
       r="96.78315" />
    <circle
       r="96.78315"
       cy="120.14999"
       cx="119.84999"
       id="path949-3"
       style="display:inline;opacity:1;fill:none;fill-opacity:0.890196;stroke:#5691cd;stroke-width:17.069;stroke-linecap:butt;stroke-linejoin:round;stroke-miterlimit:4;stroke-dasharray:51.207, 51.207;stroke-dashoffset:56.3277;stroke-opacity:1;stop-color:#000000" />
    <circle
       style="display:inline;opacity:1;fill:none;fill-opacity:0.890196;stroke:#ffffff;stroke-width:17.069;stroke-linecap:butt;stroke-linejoin:round;stroke-miterlimit:4;stroke-dasharray:34.138, 34.138;stroke-dashoffset:39.2587;stroke-opacity:1;stop-color:#000000"
       id="path949-3-9"
       cx="119.84999"
       cy="120.14999"
       r="96.78315" />
    <circle
       r="96.78315"
       cy="120.14999"
       cx="119.84999"
       id="path949-3-9-4"
       style="display:inline;opacity:1;fill:none;fill-opacity:0.890196;stroke:#000000;stroke-width:17.06900024;stroke-linecap:butt;stroke-linejoin:round;stroke-miterlimit:4;stroke-dasharray:17.06900024,34.13800049;stroke-dashoffset:90.46570129;stroke-opacity:1;stop-color:#000000" />
    <path
       transform="matrix(1.917849,0,0,1.5019284,-108.6735,-7.415921)"
       inkscape:transform-center-y="-3.2473314"
       inkscape:transform-center-x="0.082579798"
       d="m 126.67332,27.84314 -15.23788,-0.149161 7.74812,-13.121811 z"
       inkscape:randomized="0"
       inkscape:rounded="0"
       inkscape:flatsided="true"
       sodipodi:arg2="1.5805848"
       sodipodi:arg1="0.53338727"
       sodipodi:r2="4.3990073"
       sodipodi:r1="8.7980156"
       sodipodi:cy="23.369762"
       sodipodi:cx="119.09744"
       sodipodi:sides="3"
       id="path853"
       style="fill:#000000;fill-opacity:1;stroke:none;stroke-width:8.52134;stroke-linejoin:round;stroke-dasharray:8.52134, 17.0427;stroke-dashoffset:45.1632;stop-color:#000000"
       sodipodi:type="star" />
  </g>
</svg>
