<?xml version="1.0" encoding="UTF-8" standalone="no"?>
<svg
   xmlns:dc="http://purl.org/dc/elements/1.1/"
   xmlns:cc="http://creativecommons.org/ns#"
   xmlns:rdf="http://www.w3.org/1999/02/22-rdf-syntax-ns#"
   xmlns:svg="http://www.w3.org/2000/svg"
   xmlns="http://www.w3.org/2000/svg"
   xmlns:sodipodi="http://sodipodi.sourceforge.net/DTD/sodipodi-0.dtd"
   xmlns:inkscape="http://www.inkscape.org/namespaces/inkscape"
   version="1.1"
   id="Capa_1"
   x="0px"
   y="0px"
   viewBox="0 0 463.644 463.644"
   style="enable-background:new 0 0 463.644 463.644;"
   xml:space="preserve"
   sodipodi:docname="show_hand.svg"
   inkscape:version="1.0 (4035a4fb49, 2020-05-01)"><g
   transform="matrix(0.35552435,0,0,0.35552435,142.18865,176.12988)"
   id="g867"><path
     id="path4"
     style="fill:none;stroke:#000000;stroke-width:50px;stroke-linecap:round;stroke-linejoin:round"
     d="m 250.57767,-69.03428 c -121.78125,0 -246.7031188,70.484375 -345.046869,211.45313 a 25,25 0 0 0 -0.421875,27.76562 c 75.562495,118.28125 198.812494,210.78125 345.468744,210.78125 145.0625,0 270.84375,-92.78125 346.54688,-211.32812 a 25.21875,25.21875 0 0 0 0,-27.29688 c -75.875,-117.1875 -202.57813,-211.375 -346.54688,-211.375 z" /><circle
     id="circle6"
     style="fill:none;stroke:#000000;stroke-width:50px;stroke-miterlimit:10"
     r="125"
     cy="155.96571"
     cx="251.10892" /></g><metadata
   id="metadata38"><rdf:RDF><cc:Work
       rdf:about=""><dc:format>image/svg+xml</dc:format><dc:type
         rdf:resource="http://purl.org/dc/dcmitype/StillImage" /></cc:Work></rdf:RDF></metadata><defs
   id="defs36" /><sodipodi:namedview
   inkscape:document-rotation="0"
   pagecolor="#ffffff"
   bordercolor="#666666"
   borderopacity="1"
   objecttolerance="10"
   gridtolerance="10"
   guidetolerance="10"
   inkscape:pageopacity="0"
   inkscape:pageshadow="2"
   inkscape:window-width="3840"
   inkscape:window-height="2066"
   id="namedview34"
   showgrid="false"
   inkscape:snap-object-midpoints="true"
   inkscape:snap-center="true"
   inkscape:snap-intersection-paths="true"
   inkscape:object-paths="false"
   inkscape:snap-bbox="true"
   inkscape:bbox-paths="true"
   inkscape:bbox-nodes="true"
   inkscape:snap-bbox-edge-midpoints="true"
   inkscape:snap-bbox-midpoints="true"
   inkscape:zoom="0.89541208"
   inkscape:cx="259.04343"
   inkscape:cy="123.18142"
   inkscape:window-x="-11"
   inkscape:window-y="-11"
   inkscape:window-maximized="1"
   inkscape:current-layer="layer1" />

<g
   id="g3">
</g>
<g
   id="g5">
</g>
<g
   id="g7">
</g>
<g
   id="g9">
</g>
<g
   id="g11">
</g>
<g
   id="g13">
</g>
<g
   id="g15">
</g>
<g
   id="g17">
</g>
<g
   id="g19">
</g>
<g
   id="g21">
</g>
<g
   id="g23">
</g>
<g
   id="g25">
</g>
<g
   id="g27">
</g>
<g
   id="g29">
</g>
<g
   id="g31">
</g>
<g
   inkscape:groupmode="layer"
   id="layer1"
   inkscape:label="Layer 1"
   style="display:inline"><g
     id="g872"><g
       id="g876"><path
         style="enable-background:new 0 0 463.64400000000000546 463.64400000000000546"
         id="XMLID_1_"
         d="m 463.164,146.031 -77.369,288.746 c -1.677,6.26 -7.362,10.4 -13.556,10.401 -1.198,0 -2.414,-0.155 -3.625,-0.479 L 179.353,393.987 c -7.472,-2.003 -11.922,-9.711 -9.919,-17.183 l 2.041,-7.616 c 1.287,-4.801 6.222,-7.647 11.023,-6.363 4.801,1.287 7.65,6.222 6.363,11.023 l -1.013,3.78 181.587,48.656 75.314,-281.076 -77.031,-20.64 c -4.801,-1.287 -7.651,-6.222 -6.364,-11.023 1.287,-4.801 6.225,-7.648 11.022,-6.364 l 80.869,21.668 c 7.473,2.004 11.922,9.711 9.919,17.182 z M 173.576,405.019 94.213,426.284 18.897,145.209 95.928,124.568 c 4.801,-1.287 7.651,-6.222 6.364,-11.023 -1.287,-4.801 -6.225,-7.65 -11.022,-6.364 L 10.402,128.85 c -3.614,0.968 -6.637,3.29 -8.512,6.538 -1.876,3.249 -2.376,7.029 -1.407,10.644 l 77.37,288.743 c 0.968,3.616 3.29,6.641 6.54,8.518 3.552756,1.80019 7.106698,2.33459 10.644,1.408 l 83.199,-22.293 c 4.801,-1.287 7.651,-6.222 6.364,-11.022 -1.288,-4.805 -6.223,-7.652 -11.024,-6.367 z"
         sodipodi:nodetypes="cccccccccccccscccccccscccccccccc" /><path
         style="fill:none;stroke:#000000;stroke-width:17.5;stroke-linecap:round;stroke-linejoin:round;stroke-miterlimit:0;stroke-dasharray:none;stroke-opacity:1;paint-order:normal"
         d="M 128.68858,157.60332 V 27.213 H 334.9557 l 0,130.0031"
         id="path1021"
         sodipodi:nodetypes="cccc" /></g></g><path
     sodipodi:nodetypes="cccc"
     id="path1021-3"
     d="m 335.15022,307.45908 0,29.30874 H 128.8831 l 0,-29.71122"
     style="display:inline;fill:none;stroke:#000000;stroke-width:17.5;stroke-linecap:round;stroke-linejoin:round;stroke-miterlimit:0;stroke-dasharray:none;stroke-opacity:1;paint-order:normal" /></g></svg>
