<?xml version="1.0" encoding="UTF-8" standalone="no"?>
<svg
   xmlns:dc="http://purl.org/dc/elements/1.1/"
   xmlns:cc="http://creativecommons.org/ns#"
   xmlns:rdf="http://www.w3.org/1999/02/22-rdf-syntax-ns#"
   xmlns:svg="http://www.w3.org/2000/svg"
   xmlns="http://www.w3.org/2000/svg"
   xmlns:sodipodi="http://sodipodi.sourceforge.net/DTD/sodipodi-0.dtd"
   xmlns:inkscape="http://www.inkscape.org/namespaces/inkscape"
   inkscape:version="1.0 (4035a4fb49, 2020-05-01)"
   sodipodi:docname="playing-cards-svgrepo-com.svg"
   xml:space="preserve"
   style="enable-background:new 0 0 463.644 463.644;"
   viewBox="0 0 463.644 463.644"
   y="0px"
   x="0px"
   id="Capa_1"
   version="1.1"><metadata
   id="metadata38"><rdf:RDF><cc:Work
       rdf:about=""><dc:format>image/svg+xml</dc:format><dc:type
         rdf:resource="http://purl.org/dc/dcmitype/StillImage" /></cc:Work></rdf:RDF></metadata><defs
   id="defs36" /><sodipodi:namedview
   inkscape:current-layer="layer1"
   inkscape:window-maximized="1"
   inkscape:window-y="-11"
   inkscape:window-x="-11"
   inkscape:cy="378.95014"
   inkscape:cx="307.28975"
   inkscape:zoom="1.3952416"
   inkscape:snap-bbox-midpoints="true"
   inkscape:snap-bbox-edge-midpoints="true"
   inkscape:bbox-nodes="true"
   inkscape:bbox-paths="true"
   inkscape:snap-bbox="true"
   inkscape:object-paths="false"
   inkscape:snap-intersection-paths="true"
   inkscape:snap-center="true"
   inkscape:snap-object-midpoints="true"
   showgrid="false"
   id="namedview34"
   inkscape:window-height="2066"
   inkscape:window-width="3840"
   inkscape:pageshadow="2"
   inkscape:pageopacity="0"
   guidetolerance="10"
   gridtolerance="10"
   objecttolerance="10"
   borderopacity="1"
   bordercolor="#666666"
   pagecolor="#ffffff" />
<path
   sodipodi:nodetypes="cccccccccccccscccccccscccccccccc"
   d="m 463.164,146.031 -77.369,288.746 c -1.677,6.26 -7.362,10.4 -13.556,10.401 -1.198,0 -2.414,-0.155 -3.625,-0.479 L 179.353,393.987 c -7.472,-2.003 -11.922,-9.711 -9.919,-17.183 l 2.041,-7.616 c 1.287,-4.801 6.222,-7.647 11.023,-6.363 4.801,1.287 7.65,6.222 6.363,11.023 l -1.013,3.78 181.587,48.656 75.314,-281.076 -77.031,-20.64 c -4.801,-1.287 -7.651,-6.222 -6.364,-11.023 1.287,-4.801 6.225,-7.648 11.022,-6.364 l 80.869,21.668 c 7.473,2.004 11.922,9.711 9.919,17.182 z M 173.576,405.019 94.213,426.284 18.897,145.209 95.928,124.568 c 4.801,-1.287 7.651,-6.222 6.364,-11.023 -1.287,-4.801 -6.225,-7.65 -11.022,-6.364 L 10.402,128.85 c -3.614,0.968 -6.637,3.29 -8.512,6.538 -1.876,3.249 -2.376,7.029 -1.407,10.644 l 77.37,288.743 c 0.968,3.616 3.29,6.641 6.54,8.518 3.552756,1.80019 7.106698,2.33459 10.644,1.408 l 83.199,-22.293 c 4.801,-1.287 7.651,-6.222 6.364,-11.022 -1.288,-4.805 -6.223,-7.652 -11.024,-6.367 z"
   id="XMLID_1_" />
<g
   id="g3">
</g>
<g
   id="g5">
</g>
<g
   id="g7">
</g>
<g
   id="g9">
</g>
<g
   id="g11">
</g>
<g
   id="g13">
</g>
<g
   id="g15">
</g>
<g
   id="g17">
</g>
<g
   id="g19">
</g>
<g
   id="g21">
</g>
<g
   id="g23">
</g>
<g
   id="g25">
</g>
<g
   id="g27">
</g>
<g
   id="g29">
</g>
<g
   id="g31">
</g>
<g
   transform="matrix(0.75463662,0,0,0.75463662,38.928169,35.413329)"
   id="g859"><g
     transform="translate(-0.38822962,4.2705258)"
     id="g884"><polyline
       points="400 304 448 352 400 400"
       style="fill:none;stroke:#000000;stroke-width:32px;stroke-linecap:round;stroke-linejoin:round"
       id="polyline4" /><polyline
       points="400 112 448 160 400 208"
       style="fill:none;stroke:#000000;stroke-width:32px;stroke-linecap:round;stroke-linejoin:round"
       id="polyline6" /><path
       d="m 64,352 h 85.19 a 80,80 0 0 0 66.56,-35.62 L 256,256"
       style="fill:none;stroke:#000000;stroke-width:32px;stroke-linecap:round;stroke-linejoin:round"
       id="path8" /><path
       d="m 64,160 h 85.19 a 80,80 0 0 1 66.56,35.62 l 80.5,120.76 A 80,80 0 0 0 362.81,352 H 416"
       style="fill:none;stroke:#000000;stroke-width:32px;stroke-linecap:round;stroke-linejoin:round"
       id="path10" /><path
       d="m 416,160 h -53.19 a 80,80 0 0 0 -66.56,35.62 L 288,208"
       style="fill:none;stroke:#000000;stroke-width:32px;stroke-linecap:round;stroke-linejoin:round"
       id="path12" /></g></g><g
   style="display:inline"
   inkscape:label="Layer 1"
   id="layer1"
   inkscape:groupmode="layer"><path
     sodipodi:nodetypes="cccc"
     id="path1021"
     d="M 128.68858,123.25138 V 27.213 H 334.9557 l 0,58.535267"
     style="fill:none;stroke:#000000;stroke-width:17.5;stroke-linecap:round;stroke-linejoin:round;stroke-miterlimit:0;stroke-dasharray:none;stroke-opacity:1;paint-order:normal" /><path
     sodipodi:nodetypes="cc"
     id="path1025"
     d="M 128.68858,191.76769 V 272.6021"
     style="fill:none;stroke:#000000;stroke-width:17.5;stroke-linecap:round;stroke-linejoin:round;stroke-miterlimit:4;stroke-dasharray:none;stroke-opacity:1" /><path
     sodipodi:nodetypes="cc"
     id="path1027"
     d="M 128.8831,336.76782 H 304.23549"
     style="fill:none;stroke:#000000;stroke-width:17.5;stroke-linecap:round;stroke-linejoin:round;stroke-miterlimit:4;stroke-dasharray:none;stroke-opacity:1" /><path
     style="fill:none;stroke:#000000;stroke-width:17.5;stroke-linecap:round;stroke-linejoin:round;stroke-miterlimit:4;stroke-dasharray:none;stroke-opacity:1"
     d="m 334.23383,223.62498 0,14.95056"
     id="path1025-7"
     sodipodi:nodetypes="cc" /></g></svg>
