<?xml version="1.0" encoding="UTF-8" standalone="no"?>
<svg
   xmlns:dc="http://purl.org/dc/elements/1.1/"
   xmlns:cc="http://creativecommons.org/ns#"
   xmlns:rdf="http://www.w3.org/1999/02/22-rdf-syntax-ns#"
   xmlns:svg="http://www.w3.org/2000/svg"
   xmlns="http://www.w3.org/2000/svg"
   xmlns:sodipodi="http://sodipodi.sourceforge.net/DTD/sodipodi-0.dtd"
   xmlns:inkscape="http://www.inkscape.org/namespaces/inkscape"
   inkscape:version="1.0 (4035a4fb49, 2020-05-01)"
   sodipodi:docname="trap.svg"
   version="1.1"
   viewBox="0 0 240 240"
   id="Layer_1">
  <metadata
     id="metadata18">
    <rdf:RDF>
      <cc:Work
         rdf:about="">
        <dc:format>image/svg+xml</dc:format>
        <dc:type
           rdf:resource="http://purl.org/dc/dcmitype/StillImage" />
      </cc:Work>
    </rdf:RDF>
  </metadata>
  <sodipodi:namedview
     inkscape:current-layer="layer2"
     inkscape:window-maximized="1"
     inkscape:window-y="-11"
     inkscape:window-x="-11"
     inkscape:cy="85.219063"
     inkscape:cx="79.545263"
     inkscape:zoom="3.1398933"
     inkscape:snap-object-midpoints="true"
     inkscape:object-nodes="false"
     inkscape:snap-intersection-paths="false"
     inkscape:object-paths="true"
     showgrid="false"
     id="namedview16"
     inkscape:window-height="2066"
     inkscape:window-width="3840"
     inkscape:pageshadow="2"
     inkscape:pageopacity="0"
     guidetolerance="10"
     gridtolerance="10"
     objecttolerance="10"
     borderopacity="1"
     bordercolor="#666666"
     pagecolor="#ffffff"
     inkscape:document-rotation="0"
     inkscape:snap-midpoints="false" />
  <defs
     id="defs4">
    <marker
       inkscape:isstock="true"
       style="overflow:visible"
       id="Arrow1Lstart"
       refX="0.0"
       refY="0.0"
       orient="auto"
       inkscape:stockid="Arrow1Lstart">
      <path
         transform="scale(0.8) translate(12.5,0)"
         style="fill-rule:evenodd;stroke:#75587d;stroke-width:1pt;stroke-opacity:0.921569;fill:#75587d;fill-opacity:0.921569"
         d="M 0.0,0.0 L 5.0,-5.0 L -12.5,0.0 L 5.0,5.0 L 0.0,0.0 z "
         id="path951" />
    </marker>
    <style
       id="style2">.cls-1{fill:#6c6;}</style>
  </defs>
  <g
     style="display:inline;opacity:1"
     inkscape:label="img"
     id="layer2"
     inkscape:groupmode="layer">
    <g
       transform="matrix(7.2725573,0,0,7.2725573,-831.38454,-1825.3836)"
       style="font-weight:bold;font-size:36.4201px;line-height:1.25;font-family:'Chogokuboso Gothic';-inkscape-font-specification:'Chogokuboso Gothic Bold';display:inline;stroke:#fa78e3;stroke-width:0.5;stroke-miterlimit:4;stroke-dasharray:none;stroke-opacity:1"
       id="text1329-3"
       aria-label="罠">
      <path
         id="path1352"
         style="stroke:#fa78e3;stroke-width:0.5;stroke-miterlimit:4;stroke-dasharray:none;stroke-opacity:1"
         d="m 119.36269,266.83991 h 23.33163 v -5.08601 h -23.33163 z m 14.47557,5.47724 q -0.9603,-2.56078 -1.35153,-5.08601 h -13.12404 v 5.08601 z m -16.11163,-14.0132 h -0.5335 v -6.01074 h 27.67074 v 6.01074 z m 8.57153,-0.39123 v -5.26384 h -8.74936 v 5.26384 z m 9.10502,0 v -5.26384 h -8.74936 v 5.26384 z m 0.35567,0 h 8.74936 v -5.26384 h -8.74936 z m -20.59301,24.39862 -0.0356,-0.39123 q 1.1737,-0.14227 3.87675,-0.5335 v -19.98837 h 24.04296 v 5.8329 h -10.17202 q 0.39123,2.63192 1.35153,5.08601 h 10.63438 v 0.35567 h -10.49212 q 1.77833,4.33911 4.51695,7.0066 2.73862,2.63192 4.87261,2.63192 1.95616,0 2.88089,-5.47724 l 0.39123,0.0711 q -0.92473,5.79734 -3.27212,5.79734 -2.24069,0 -5.12158,-2.77418 -2.88088,-2.80976 -4.69478,-7.25557 h -14.58226 v 8.67823 q 6.2597,-0.99587 13.62197,-2.80976 l 0.0711,0.35567 q -8.92719,2.27625 -17.88995,3.41438 z" />
    </g>
  </g>
</svg>
