<?xml version="1.0" encoding="UTF-8" standalone="no"?>
<svg
   xmlns:dc="http://purl.org/dc/elements/1.1/"
   xmlns:cc="http://creativecommons.org/ns#"
   xmlns:rdf="http://www.w3.org/1999/02/22-rdf-syntax-ns#"
   xmlns:svg="http://www.w3.org/2000/svg"
   xmlns="http://www.w3.org/2000/svg"
   xmlns:sodipodi="http://sodipodi.sourceforge.net/DTD/sodipodi-0.dtd"
   xmlns:inkscape="http://www.inkscape.org/namespaces/inkscape"
   inkscape:version="1.0 (4035a4fb49, 2020-05-01)"
   sodipodi:docname="trap.svg"
   version="1.1"
   viewBox="0 0 1024 640"
   id="Layer_1">
  <metadata
     id="metadata196">
    <rdf:RDF>
      <cc:Work
         rdf:about="">
        <dc:format>image/svg+xml</dc:format>
        <dc:type
           rdf:resource="http://purl.org/dc/dcmitype/StillImage" />
      </cc:Work>
    </rdf:RDF>
  </metadata>
  <sodipodi:namedview
     inkscape:current-layer="Layer_1"
     inkscape:window-maximized="1"
     inkscape:window-y="-11"
     inkscape:window-x="-11"
     inkscape:cy="161.35829"
     inkscape:cx="274.91141"
     inkscape:zoom="11.435603"
     inkscape:snap-center="true"
     inkscape:snap-object-midpoints="true"
     showgrid="false"
     id="namedview194"
     inkscape:window-height="2066"
     inkscape:window-width="3840"
     inkscape:pageshadow="2"
     inkscape:pageopacity="0"
     guidetolerance="10"
     gridtolerance="10"
     objecttolerance="10"
     borderopacity="1"
     bordercolor="#666666"
     pagecolor="#ffffff" />
  <defs
     id="defs34">
    <style
       id="style2">.cls-1{stroke:#ff7500;}.cls-1,.cls-2,.cls-3{fill:none;stroke-linecap:round;stroke-linejoin:round;}.cls-2{stroke:#09f;}.cls-4{fill:rgba(255,121,0,.85);}.cls-4,.cls-5,.cls-6,.cls-7,.cls-8,.cls-9,.cls-10,.cls-11,.cls-12,.cls-13,.cls-14{stroke-width:0px;}.cls-5{fill:url(#radial-gradient);}.cls-6{fill:rgba(0,204,255,.75);}.cls-7{fill:url(#radial-gradient-2);}.cls-8{fill:url(#radial-gradient-3);}.cls-9{fill:url(#radial-gradient-4);}.cls-10{fill:url(#radial-gradient-6);}.cls-11{fill:url(#radial-gradient-5);}.cls-12{fill:rgba(153,0,204,.6);}.cls-13{fill:rgba(255,255,255,.5);}.cls-14{fill:#fff;}.cls-3{stroke:rgba(153,0,204,.6);}</style>
    <radialGradient
       gradientUnits="userSpaceOnUse"
       gradientTransform="translate(225 -115.5)"
       r="34.71"
       fy="150"
       fx="0"
       cy="150"
       cx="0"
       id="radial-gradient">
      <stop
         id="stop4"
         stop-color="#fff"
         offset="0" />
      <stop
         id="stop6"
         stop-color="#000"
         offset="1" />
    </radialGradient>
    <radialGradient
       gradientUnits="userSpaceOnUse"
       gradientTransform="translate(225 -78.5)"
       r="34.71"
       fy="150"
       fx="0"
       cy="150"
       cx="0"
       id="radial-gradient-2">
      <stop
         id="stop9"
         stop-color="#ff6"
         offset="0" />
      <stop
         id="stop11"
         stop-color="#000"
         offset="1" />
    </radialGradient>
    <radialGradient
       gradientUnits="userSpaceOnUse"
       gradientTransform="translate(225 -41.5)"
       r="34.71"
       fy="150"
       fx="0"
       cy="150"
       cx="0"
       id="radial-gradient-3">
      <stop
         id="stop14"
         stop-color="#c90"
         offset="0" />
      <stop
         id="stop16"
         stop-color="#000"
         offset="1" />
    </radialGradient>
    <radialGradient
       gradientUnits="userSpaceOnUse"
       gradientTransform="translate(225 -4.5)"
       r="34.71"
       fy="150"
       fx="0"
       cy="150"
       cx="0"
       id="radial-gradient-4">
      <stop
         id="stop19"
         stop-color="#0cf"
         offset="0" />
      <stop
         id="stop21"
         stop-color="#000"
         offset="1" />
    </radialGradient>
    <radialGradient
       gradientUnits="userSpaceOnUse"
       gradientTransform="translate(225 69.5)"
       r="34.71"
       fy="113"
       fx="0"
       cy="113"
       cx="0"
       id="radial-gradient-5">
      <stop
         id="stop24"
         stop-color="#6f6"
         offset="0" />
      <stop
         id="stop26"
         stop-color="#000"
         offset="1" />
    </radialGradient>
    <radialGradient
       gradientUnits="userSpaceOnUse"
       gradientTransform="translate(225 106.5)"
       r="34.71"
       fy="113"
       fx="0"
       cy="113"
       cx="0"
       id="radial-gradient-6">
      <stop
         id="stop29"
         stop-color="#ff7be8"
         offset="0" />
      <stop
         id="stop31"
         stop-color="#000"
         offset="1" />
    </radialGradient>
  </defs>
  <path
     d="M738,81.5h-54V5h54v76.5ZM793,82.5v76.5h-54v-76.5h54ZM793,5v76.5h-54V5h54ZM793,160v76.5h-54v-76.5h54ZM738,82.5v76.5h-54v-76.5h54ZM683,81.5h-54V5h54v76.5ZM573,81.5h-54V5h54v76.5ZM628,82.5v76.5h-54v-76.5h54ZM628,5v76.5h-54V5h54ZM628,160v76.5h-54v-76.5h54ZM573,82.5v76.5h-54v-76.5h54ZM683,236.5h-54v-76.5h54v76.5ZM683,159h-54v-76.5h54v76.5ZM628,237.5v76.5h-54v-76.5h54ZM628,392.5v76.5h-54v-76.5h54ZM628,315v76.5h-54v-76.5h54ZM519,315h54v76.5h-54v-76.5ZM683,391.5h-54v-76.5h54v76.5ZM684,315h54v76.5h-54v-76.5ZM738,237.5v76.5h-54v-76.5h54ZM573,237.5v76.5h-54v-76.5h54ZM683,469h-54v-76.5h54v76.5ZM683,314h-54v-76.5h54v76.5ZM793,237.5v76.5h-54v-76.5h54ZM793,392.5v76.5h-54v-76.5h54ZM793,315v76.5h-54v-76.5h54ZM738,392.5v76.5h-54v-76.5h54ZM738,160v76.5h-54v-76.5h54ZM573,160v76.5h-54v-76.5h54ZM518,81.5h-54V5h54v76.5ZM408,81.5h-54V5h54v76.5ZM463,82.5v76.5h-54v-76.5h54ZM463,5v76.5h-54V5h54ZM463,160v76.5h-54v-76.5h54ZM408,82.5v76.5h-54v-76.5h54ZM518,160v76.5h-54v-76.5h54ZM518,159h-54v-76.5h54v76.5ZM353,81.5h-54V5h54v76.5ZM298,82.5v76.5h-54v-76.5h54ZM298,81.5h-54V5h54v76.5ZM298,160v76.5h-54v-76.5h54ZM353,236.5h-54v-76.5h54v76.5ZM353,159h-54v-76.5h54v76.5ZM298,237.5v76.5h-54v-76.5h54ZM298,315v76.5h-54v-76.5h54ZM298,392.5v76.5h-54v-76.5h54ZM353,391.5h-54v-76.5h54v76.5ZM354,315h54v76.5h-54v-76.5ZM408,237.5v76.5h-54v-76.5h54ZM353,392.5v76.5h-54v-76.5h54ZM353,314h-54v-76.5h54v76.5ZM463,237.5v76.5h-54v-76.5h54ZM463,315v76.5h-54v-76.5h54ZM464,315h54v76.5h-54v-76.5ZM463,392.5v76.5h-54v-76.5h54ZM518,392.5v76.5h-54v-76.5h54ZM464,237.5h54v76.5h-54v-76.5ZM408,392.5v76.5h-54v-76.5h54ZM408,160v76.5h-54v-76.5h54ZM573,392.5v76.5h-54v-76.5h54Z"
     class="cls-3"
     id="deck_slots_mc_0_Layer0_0_1_STROKES" />
  <g
     transform="translate(94.181569,-121.99787)"
     style="font-weight:bold;font-size:36.4201px;line-height:1.25;font-family:'Chogokuboso Gothic';-inkscape-font-specification:'Chogokuboso Gothic Bold';display:inline;stroke:#fa78e3;stroke-width:0.5;stroke-miterlimit:4;stroke-dasharray:none;stroke-opacity:1"
     id="text1329-3"
     aria-label="罠">
    <path
       id="path1352"
       style="stroke:#fa78e3;stroke-width:0.5;stroke-miterlimit:4;stroke-dasharray:none;stroke-opacity:1"
       d="m 119.36269,266.83991 h 23.33163 v -5.08601 h -23.33163 z m 14.47557,5.47724 q -0.9603,-2.56078 -1.35153,-5.08601 h -13.12404 v 5.08601 z m -16.11163,-14.0132 h -0.5335 v -6.01074 h 27.67074 v 6.01074 z m 8.57153,-0.39123 v -5.26384 h -8.74936 v 5.26384 z m 9.10502,0 v -5.26384 h -8.74936 v 5.26384 z m 0.35567,0 h 8.74936 v -5.26384 h -8.74936 z m -20.59301,24.39862 -0.0356,-0.39123 q 1.1737,-0.14227 3.87675,-0.5335 v -19.98837 h 24.04296 v 5.8329 h -10.17202 q 0.39123,2.63192 1.35153,5.08601 h 10.63438 v 0.35567 h -10.49212 q 1.77833,4.33911 4.51695,7.0066 2.73862,2.63192 4.87261,2.63192 1.95616,0 2.88089,-5.47724 l 0.39123,0.0711 q -0.92473,5.79734 -3.27212,5.79734 -2.24069,0 -5.12158,-2.77418 -2.88088,-2.80976 -4.69478,-7.25557 h -14.58226 v 8.67823 q 6.2597,-0.99587 13.62197,-2.80976 l 0.0711,0.35567 q -8.92719,2.27625 -17.88995,3.41438 z" />
  </g>
</svg>
